<svg xmlns="http://www.w3.org/2000/svg" width="75" height="72"><g fill="none"><path fill="#9E1DAF" d="M23.226 40.065c0-3.515-.792-7.549-6.968-7.549S9.29 36.55 9.29 40.065c0 2.402.706 4.515 1.882 6.06l-6.527 4.35v2.944c0 2.518 1.596 4.646 3.484 4.646h16.258c1.888 0 3.484-2.128 3.484-4.646v-2.944l-6.526-4.35c1.175-1.545 1.88-3.658 1.88-6.06zm-6.968-5.226c3.516 0 4.645 1.27 4.645 5.226 0 3.096-1.628 6.387-4.645 6.387-3.017 0-4.645-3.291-4.645-6.387 0-3.956 1.129-5.226 4.645-5.226zm9.29 18.58c0 1.422-.816 2.323-1.16 2.323H8.128c-.345 0-1.161-.901-1.161-2.323v-1.7l5.93-3.954a6.065 6.065 0 0 0 3.36 1.01 6.074 6.074 0 0 0 3.36-1.01l5.93 3.953v1.701z"/><path fill="#9E1DAF" d="M29.032 27.871H3.484A3.488 3.488 0 0 0 0 31.355v27.87a3.488 3.488 0 0 0 3.484 3.485h5.532l18.336 9.168a1.161 1.161 0 0 0 1.56-1.558l-3.807-7.61h3.927a3.488 3.488 0 0 0 3.484-3.484V31.355a3.488 3.488 0 0 0-3.484-3.484zm1.162 31.355c0 .64-.522 1.161-1.162 1.161h-5.806a1.163 1.163 0 0 0-1.04 1.682l3.088 6.173L9.81 60.51a1.165 1.165 0 0 0-.519-.122H3.484c-.64 0-1.161-.52-1.161-1.161V31.355c0-.641.521-1.161 1.16-1.161h25.55c.64 0 1.16.52 1.16 1.16v27.872z"/><path fill="#FFA207" d="M58.065 20.903c-6.176 0-6.968 4.035-6.968 7.549 0 2.402.706 4.515 1.88 6.06l-6.525 4.35v2.944c0 2.518 1.595 4.646 3.483 4.646h16.259c1.888 0 3.483-2.128 3.483-4.646v-2.943l-6.525-4.35c1.174-1.546 1.88-3.659 1.88-6.061 0-3.514-.792-7.549-6.967-7.549zm0 2.323c3.515 0 4.645 1.27 4.645 5.226 0 3.096-1.628 6.387-4.645 6.387-3.018 0-4.646-3.291-4.646-6.387 0-3.956 1.13-5.226 4.646-5.226zm9.29 18.58c0 1.422-.817 2.323-1.161 2.323H49.935c-.344 0-1.16-.901-1.16-2.323v-1.7l5.93-3.954a6.065 6.065 0 0 0 3.36 1.01 6.074 6.074 0 0 0 3.36-1.01l5.93 3.953v1.701z"/><path fill="#FFA207" d="M70.839 16.258H51.097v2.323h19.742c.64 0 1.161.52 1.161 1.16v27.872c0 .64-.521 1.161-1.161 1.161h-5.807c-.18 0-.359.042-.519.122L49.05 56.628l3.087-6.173a1.162 1.162 0 0 0-1.04-1.68H45.29c-.64 0-1.161-.521-1.161-1.162V37.16h-2.323v10.452a3.488 3.488 0 0 0 3.484 3.484h3.928l-3.805 7.61a1.16 1.16 0 0 0 1.558 1.558l18.335-9.168h5.533a3.488 3.488 0 0 0 3.484-3.484v-27.87a3.488 3.488 0 0 0-3.484-3.484z"/><path fill="#9E1DAF" d="M41.806 23.847v1.701c0 1.422-.816 2.323-1.16 2.323h-5.807v2.323h5.806c1.888 0 3.484-2.128 3.484-4.646v-2.943l-6.526-4.35c1.175-1.546 1.88-3.659 1.88-6.061 0-3.515-.791-7.549-6.967-7.549-6.176 0-6.968 4.034-6.968 7.549 0 2.402.706 4.515 1.882 6.06l-6.527 4.35v2.944h2.323v-1.7l5.93-3.954a6.065 6.065 0 0 0 3.36 1.01 6.074 6.074 0 0 0 3.36-1.01l5.93 3.953zm-9.29-5.266c-3.017 0-4.645-3.291-4.645-6.387 0-3.956 1.129-5.226 4.645-5.226 3.517 0 4.645 1.27 4.645 5.226 0 3.096-1.628 6.387-4.645 6.387z"/><path fill="#9E1DAF" d="M48.774 31.355V3.484A3.488 3.488 0 0 0 45.29 0H19.742a3.488 3.488 0 0 0-3.484 3.484v22.064h2.323V3.484c0-.641.521-1.161 1.16-1.161h25.55c.64 0 1.16.52 1.16 1.16v27.872c0 .64-.52 1.161-1.16 1.161h-5.807c-.388 0-.75.194-.966.517l-4.644 6.969 1.932 1.288 4.3-6.451h5.184a3.488 3.488 0 0 0 3.484-3.484z"/><path fill="#FFA207" d="M45.29 65.032h2.323v2.323H45.29v-2.323zm-4.645 0h2.323v2.323h-2.323v-2.323zm-4.645 0h2.323v2.323H36v-2.323zm13.935 0h2.323v2.323h-2.323v-2.323z"/></g></svg>