<svg xmlns="http://www.w3.org/2000/svg" width="80" height="80"><g fill="none"><path fill="#51B15C" d="M17.5 38.75H20v2.5h-2.5z"/><path fill="#9E1DAF" d="M32.5 38.75v2.5h6.25v7.5h7.5v22.5H30v-4c.375.125.75.25 1.25.25 2.125 0 3.75-1.625 3.75-3.75v-8l-5-6.25V0h-2.5v43.75H15V10h-2.5v28.75H0v35h10v-2.5H2.5v-30h10v5h15v4.25l5 6.25v7c0 .75-.5 1.25-1.25 1.25S30 64.5 30 63.75v-5h-2.5v15c0 .75-.5 1.25-1.25 1.25S25 74.5 25 73.75V62.5h-2.5v11.25c0 .75-.5 1.25-1.25 1.25S20 74.5 20 73.75V62.5h-2.5v11.25c0 .75-.5 1.25-1.25 1.25S15 74.5 15 73.75v-25h-2.5v25c0 2.125 1.625 3.75 3.75 3.75 1 0 1.875-.375 2.5-1 .625.625 1.5 1 2.5 1s1.875-.375 2.5-1c.625.625 1.5 1 2.5 1 2.125 0 3.75-1.625 3.75-3.75h18.75V47l-8.25-8.25h-8zM41.25 43l3.25 3.25h-3.25V43zM12.5 0H15v2.5h-2.5zm0 5H15v2.5h-2.5z"/><path fill="#51B15C" d="M66.25 77.5h2.5V80h-2.5zm0-5h2.5V75h-2.5zM80 31.25V7.5H68.75V6.25c0-2.125-1.625-3.75-3.75-3.75-1 0-1.875.375-2.5 1-.625-.625-1.5-1-2.5-1s-1.875.375-2.5 1c-.625-.625-1.5-1-2.5-1-2.125 0-3.75 1.625-3.75 3.75V7.5H35v23.75h11.25v-2.5h-5.125a5.287 5.287 0 0 0-3.625-3.625V13.5a5.287 5.287 0 0 0 3.625-3.625H51.25v2.75c-.375-.125-.75-.25-1.25-.25-2.125 0-3.75 1.625-3.75 3.75v8l5 6.25V80h2.5V36.25h12.5V70h2.5V33.75h-15V29.5l-5-6.25v-7c0-.75.5-1.25 1.25-1.25s1.25.5 1.25 1.25v5h2.5v-15c0-.75.5-1.25 1.25-1.25s1.25.5 1.25 1.25V17.5h2.5V6.25c0-.75.5-1.25 1.25-1.25s1.25.5 1.25 1.25V17.5h2.5V6.25c0-.75.5-1.25 1.25-1.25s1.25.5 1.25 1.25v25H80zM68.75 10h5.125a5.287 5.287 0 0 0 3.625 3.625V25.25a5.287 5.287 0 0 0-3.625 3.625H68.75V10z"/><path fill="#9E1DAF" d="M61.25 38.75h2.5v2.5h-2.5z"/><path fill="#51B15C" d="M72.5 18.75H75v2.5h-2.5zm-32.5 0h2.5v2.5H40z"/></g></svg>