<svg xmlns="http://www.w3.org/2000/svg" width="75" height="70"><g fill="none" fill-rule="evenodd"><path fill="#9E1DAF" d="M37.333 24.5L31.15 4.667h-1.983c-4.084 0-7.467 3.033-8.05 7h-8.284C9.567 11.667 7 14.233 7 17.5c0 3.267 2.567 5.833 5.833 5.833V21c-1.983 0-3.5-1.517-3.5-3.5s1.517-3.5 3.5-3.5h10.5v-1.167C23.333 9.567 25.9 7 29.167 7h.35L35 24.733v.117l-4.667 1.167v10.966l-.466.35H17.5v2.334H21V45.5h2.333v-5.833H30.8l1.867-1.867V27.767l4.666-1.167v-2.1z"/><path fill="#1A82DF" d="M57.167 23.333v2.334c8.4 0 15.166 6.766 15.166 15.166a15.18 15.18 0 0 1-9.566 14.117l.816 2.217c1.05-.35 1.984-.934 2.8-1.4V70h2.334V53.9c3.616-3.267 5.833-7.933 5.833-13.067.117-9.683-7.7-17.5-17.383-17.5z"/><path fill="#1A82DF" d="M61.833 44.333v2.334c3.267 0 5.834-2.567 5.834-5.834 0-3.266-2.567-5.833-5.834-5.833H53.55c-.583-3.85-4.083-7-8.05-7h-1.983l-6.184 19.483v2.45L42 51.1v10.033L43.867 63h7.466v7h2.334v-7h3.5v-2.333H44.8l-.467-.467V49.233l-4.666-1.166 5.483-17.734h.35c3.383 0 5.833 3.034 5.833 5.834v1.166h10.5c1.984 0 3.5 1.517 3.5 3.5 0 1.984-1.516 3.5-3.5 3.5zM72.333 7a4.68 4.68 0 0 1-4.666 4.667H47.833c-3.85 0-7 3.15-7 7s3.15 7 7 7h7v-2.334h-7a4.68 4.68 0 0 1-4.666-4.666A4.68 4.68 0 0 1 47.833 14h19.834c3.85 0 7-3.15 7-7s-3.15-7-7-7H35v2.333h32.667A4.68 4.68 0 0 1 72.333 7z"/><circle cx="67.667" cy="7" r="2.333" fill="#9E1DAF"/><path fill="#9E1DAF" d="M37.333 5.833h2.333v2.333h-2.333zm4.667 0h2.333v2.333H42zm4.667 0H49v2.333h-2.333z"/><path fill="#1A82DF" d="M57.167 17.5H59.5v2.333h-2.333zm4.666 0h2.333v2.333h-2.333zm4.667 0h2.333v2.333H66.5z"/><path fill="#9E1DAF" d="M12.833 47.833v2.334h8.75l8.75 12.016V70h2.334v-8.517l-9.917-13.65zm-2.333 0H8.167V32.317a15.67 15.67 0 0 0 2.8 1.4l.816-2.217c-5.716-2.217-9.45-7.817-9.45-14C2.333 9.1 9.1 2.333 17.5 2.333h15.167V0H17.5C7.817 0 0 7.817 0 17.5c0 5.133 2.217 9.8 5.833 13.067v17.266H3.85L0 58.1V70h2.333V58.567l3.15-8.4H10.5v-2.334z"/><path fill="#9E1DAF" d="M15.167 57.167A8.116 8.116 0 0 0 7 65.333V70h2.333v-4.667c0-3.266 2.567-5.833 5.834-5.833 3.266 0 5.833 2.567 5.833 5.833V70h2.333v-4.667a8.116 8.116 0 0 0-8.166-8.166z"/><circle cx="47.833" cy="18.667" r="2.333" fill="#1A82DF"/></g></svg>