<svg width="67" height="68" xmlns="http://www.w3.org/2000/svg"><g fill="none"><path d="M63.96 52.61h-2.953v-3.865c0-5.01-4.106-9.09-9.148-9.09H35.437v-8.876a2.084 2.084 0 0 0-2.089-2.076c-1.152 0-2.088.93-2.088 2.076v8.876H14.838c-5.042 0-9.148 4.08-9.148 9.09v3.866H2.737A2.727 2.727 0 0 0 0 55.33v9.949A2.727 2.727 0 0 0 2.737 68h10.012a2.727 2.727 0 0 0 2.737-2.72v-9.95a2.727 2.727 0 0 0-2.737-2.72H9.796v-3.865c0-2.72 2.232-4.939 4.97-4.939h16.422v8.805h-2.881a2.727 2.727 0 0 0-2.737 2.72v9.949A2.727 2.727 0 0 0 28.307 68H38.39a2.727 2.727 0 0 0 2.737-2.72v-9.95a2.727 2.727 0 0 0-2.737-2.72h-2.953v-8.804H51.86c2.737 0 4.97 2.22 4.97 4.94v3.865h-2.953a2.727 2.727 0 0 0-2.737 2.72v9.949A2.727 2.727 0 0 0 53.876 68h10.012a2.727 2.727 0 0 0 2.737-2.72v-9.95c0-1.503-1.225-2.72-2.665-2.72z" fill="#9E1DAF"/><path d="M22.04 20.973l9.724 4.438.072-.072V11.524L21.608 6.872v13.242a.766.766 0 0 0 .432.859zM33.348 8.947l9.868-4.438v-.143L33.71.072C33.565 0 33.492 0 33.349 0c-.145 0-.217 0-.36.072L23.48 4.366v.143l9.867 4.438zm1.513 16.392l.144.215-.072-.215 9.724-4.438c.288-.143.504-.43.504-.716V6.943l-.072-.071-10.228 4.724v13.743z" fill="#51B15C"/></g></svg>